<?xml version="1.0" encoding="utf-8"?><!-- Uploaded to: SVG Repo, www.svgrepo.com, Generator: SVG Repo Mixer Tools -->
<svg width="24" height="24" viewBox="0 0 24 24" color="white" xmlns="http://www.w3.org/2000/svg">
    <path d="M12 17a2 2 0 110 4 2 2 0 010-4zm7 0a2 2 0 110 4 2 2 0 010-4zM5 17a2 2 0 110 4 2 2 0 010-4zm7-7a2 2 0 110 4 2 2 0 010-4zm7 0a2 2 0 110 4 2 2 0 010-4zM5 10a2 2 0 110 4 2 2 0 010-4zm7-7a2 2 0 110 4 2 2 0 010-4zm7 0a2 2 0 110 4 2 2 0 010-4zM5 3a2 2 0 110 4 2 2 0 010-4z"></path>
</svg>